<mxfile host="app.diagrams.net" modified="2024-02-26T04:24:00.679Z" agent="Mozilla/5.0 (Windows NT 10.0; Win64; x64) AppleWebKit/537.36 (KHTML, like Gecko) Chrome/121.0.0.0 Safari/537.36 Edg/121.0.0.0" version="23.1.6" etag="jE1r-l2PpwjjXRHoB0bQ" type="github">
  <diagram name="Page-1" id="gduwFm8SdNy9R9YaazJH">
    <mxGraphModel>
      <root>
        <mxCell id="0" />
        <mxCell id="1" parent="0" />
      </root>
    </mxGraphModel>
  </diagram>
</mxfile>
